<?xml version="1.0" standalone="no"?>
<!DOCTYPE svg PUBLIC "-//W3C//DTD SVG 20010904//EN"
 "http://www.w3.org/TR/2001/REC-SVG-20010904/DTD/svg10.dtd">
<svg version="1.0" xmlns="http://www.w3.org/2000/svg"
 width="256.000000pt" height="703.000000pt" viewBox="0 0 256.000000 703.000000"
 preserveAspectRatio="xMidYMid meet">

<g transform="translate(0.000000,703.000000) scale(0.100000,-0.100000)"
fill="#000000" stroke="none">
<path d="M848 7010 c-93 -23 -172 -62 -193 -93 -18 -27 -45 -196 -45 -282 0
-37 -6 -68 -15 -79 -16 -21 -21 -111 -6 -102 8 5 23 -40 25 -74 1 -17 22 -21
123 -23 40 -1 67 -5 60 -9 -8 -5 -7 -8 6 -8 10 0 17 -8 17 -20 0 -13 11 -25
33 -33 l32 -14 -37 -7 c-48 -9 -49 -28 -2 -72 19 -19 31 -34 26 -34 -6 0 -24
13 -41 29 -16 15 -32 26 -35 24 -6 -6 -46 48 -46 63 0 8 -4 14 -10 14 -5 0
-10 5 -10 11 0 16 -22 34 -57 46 -26 10 -31 9 -26 -3 3 -7 9 -11 14 -8 5 3 6
-1 3 -9 -9 -24 57 -186 97 -240 38 -50 39 -54 39 -133 0 -59 4 -85 15 -94 8
-6 19 -9 24 -5 16 9 49 -13 65 -44 16 -31 11 -101 -8 -113 -24 -16 -125 114
-112 145 3 8 5 8 5 -1 1 -14 21 -7 21 7 0 19 -38 6 -70 -24 -19 -18 -79 -58
-132 -89 -108 -63 -207 -148 -243 -211 -65 -109 -293 -729 -281 -760 2 -7 48
-38 100 -69 l96 -57 1 -42 c1 -35 2 -38 8 -17 7 22 10 17 21 -33 12 -52 11
-78 -8 -235 -22 -174 -28 -314 -16 -360 6 -21 11 -22 53 -17 27 3 -6 -10 -79
-31 -69 -19 -131 -37 -138 -39 -8 -3 -12 -28 -12 -78 0 -81 -3 -77 81 -110 39
-16 37 -12 65 -182 2 -16 7 -81 10 -145 7 -135 20 -221 35 -231 6 -4 -2 -12
-20 -20 -38 -17 -38 -22 -4 -45 34 -22 95 -21 129 1 13 8 24 11 24 5 0 -14 30
-12 35 3 6 17 24 320 27 439 l2 96 25 -9 c45 -18 178 -22 258 -9 43 6 106 25
140 41 75 35 80 35 86 7 4 -21 4 -21 6 2 1 17 11 32 29 42 15 9 48 35 74 57
25 23 49 41 52 41 3 0 8 -16 12 -35 4 -21 10 -32 17 -28 6 4 8 -2 5 -15 -4
-12 -3 -20 2 -17 4 3 12 -13 17 -34 8 -28 7 -44 -3 -62 -15 -28 -18 -49 -6
-49 26 0 40 130 22 208 -13 56 -1 72 107 145 l82 55 52 -80 c28 -44 48 -82 45
-85 -3 -4 -6 -1 -6 5 0 7 -4 12 -10 12 -5 0 -19 8 -30 17 -15 13 -17 19 -7 26
8 6 6 7 -5 3 -11 -3 -22 2 -29 15 -6 11 -13 18 -16 15 -3 -3 5 -21 17 -40 12
-21 17 -36 10 -36 -6 0 -8 -5 -5 -10 4 -6 11 -7 17 -4 6 4 9 1 6 -7 -3 -8 -12
-13 -22 -11 -9 2 -16 -4 -16 -13 0 -8 -5 -15 -11 -15 -5 0 -7 -4 -4 -10 3 -5
2 -10 -3 -10 -13 0 -11 -30 2 -30 6 -1 0 -7 -14 -15 -14 -8 -20 -14 -14 -15 6
0 16 -17 22 -38 12 -43 30 -93 49 -139 15 -36 16 -62 4 -82 -5 -8 -5 -27 1
-45 10 -34 11 -114 3 -170 -4 -23 -1 -44 11 -63 14 -24 14 -25 0 -9 -27 34
-34 5 -15 -69 10 -38 18 -63 19 -55 4 30 18 -36 21 -95 2 -45 3 -51 6 -22 2
20 9 37 14 37 6 0 7 -5 3 -12 -4 -6 0 -16 8 -22 8 -6 18 -29 21 -51 4 -22 11
-41 17 -43 5 -2 10 -8 10 -13 0 -6 -5 -7 -11 -3 -7 4 -10 -7 -8 -33 2 -21 0
-43 -4 -49 -3 -6 13 -32 37 -59 30 -33 45 -43 49 -34 3 8 6 -2 6 -22 1 -19
-10 -58 -24 -84 -13 -27 -23 -51 -21 -53 3 -2 17 3 33 12 15 8 22 15 15 16
-10 0 -10 4 0 23 10 16 13 84 13 259 0 209 2 239 17 250 12 10 14 19 7 36 -4
12 -13 22 -19 22 -5 0 -9 6 -7 13 1 6 -3 11 -10 10 -8 -2 -10 4 -6 14 4 11 3
14 -5 9 -7 -4 -17 3 -24 18 -7 17 -19 26 -34 26 -29 0 -40 17 -16 25 25 7 52
-4 52 -22 0 -8 6 -13 12 -11 14 5 30 70 19 78 -10 7 -36 102 -33 119 2 7 -1
10 -6 7 -5 -3 -9 -20 -10 -37 -3 -99 -11 -112 -91 -134 -21 -6 -23 -5 -17 22
15 81 17 220 2 267 -19 61 -10 79 20 41 13 -16 26 -26 30 -23 6 6 14 50 17 86
1 19 13 14 25 -10 9 -19 10 -8 8 50 -4 83 1 86 19 10 l13 -53 7 33 c6 24 28
50 83 97 41 35 97 94 124 130 32 42 62 71 85 80 19 8 49 30 67 48 17 18 91 69
165 112 316 189 428 334 392 508 -17 82 -56 165 -125 265 -37 54 -55 89 -51
101 3 11 -3 25 -16 37 -12 10 -83 96 -157 189 -74 94 -152 188 -172 210 -21
22 -60 69 -86 105 -27 36 -87 101 -134 143 -93 87 -170 129 -313 172 -48 15
-112 37 -143 51 -30 13 -65 24 -78 24 -33 0 -66 80 -73 176 -6 73 -6 74 29
113 30 32 38 52 49 112 7 41 12 91 11 112 -1 40 4 46 23 21 11 -15 14 -15 43
0 59 30 83 125 42 166 -16 16 -24 18 -47 9 -16 -6 -47 -17 -70 -24 -39 -12
-43 -12 -43 5 0 13 14 22 53 32 l52 15 -2 62 c-2 34 -9 92 -17 129 -36 175
-47 189 -168 222 -115 31 -206 34 -300 10z m-87 -250 c21 -12 26 -54 8 -66 -8
-4 -7 -9 2 -15 11 -7 9 -9 -6 -9 -32 0 -85 -37 -85 -60 0 -23 2 -24 70 -8 42
10 53 9 60 -2 12 -20 -25 -36 -99 -43 l-64 -5 7 54 c6 56 31 131 49 149 7 7 7
5 2 -5 -6 -11 -2 -10 11 3 22 20 20 20 45 7z m1 -257 c-5 -10 -7 -24 -5 -30 6
-17 -2 -16 -16 1 -9 11 -8 18 4 30 21 21 28 20 17 -1z m271 -3 c-3 -11 -9 -17
-15 -14 -5 3 -4 12 3 20 16 19 18 18 12 -6z m-310 -46 c20 -5 30 -14 34 -35 3
-15 13 -30 22 -32 9 -3 -12 -5 -46 -6 -52 -1 -67 3 -84 20 -12 12 -17 24 -12
28 5 3 12 14 16 24 4 12 13 16 24 13 10 -3 31 -8 46 -12z m157 -72 c0 -17 -37
-48 -47 -38 -5 4 36 55 45 56 1 0 2 -8 2 -18z m82 -133 c49 11 63 6 24 -9 -40
-15 -121 -13 -135 4 -10 12 -6 13 29 5 24 -6 56 -5 82 0z m1178 -1651 c39 -29
70 -56 70 -60 0 -4 -28 -26 -61 -49 -34 -23 -116 -88 -182 -145 -66 -57 -122
-102 -124 -100 -2 2 1 15 6 28 12 31 31 199 26 224 -2 11 -6 36 -9 58 -5 37
-5 38 14 21 25 -23 53 -15 115 34 28 22 56 40 63 40 7 1 44 -23 82 -51z m-670
-875 c-1 -11 -26 -43 -34 -43 -10 0 -3 34 9 42 13 10 25 10 25 1z m-15 -63
c-3 -5 -12 -10 -18 -10 -7 0 -6 4 3 10 19 12 23 12 15 0z m55 -645 c0 -5 -5
-3 -10 5 -5 8 -10 20 -10 25 0 6 5 3 10 -5 5 -8 10 -19 10 -25z m125 -5 c-3
-5 -12 -10 -18 -10 -7 0 -6 4 3 10 19 12 23 12 15 0z m-111 -26 c3 -8 2 -12
-4 -9 -6 3 -10 10 -10 16 0 14 7 11 14 -7z"/>
<path d="M241 4284 c0 -11 3 -14 6 -6 3 7 2 16 -1 19 -3 4 -6 -2 -5 -13z"/>
<path d="M241 4174 c0 -11 3 -14 6 -6 3 7 2 16 -1 19 -3 4 -6 -2 -5 -13z"/>
<path d="M242 4100 c0 -14 2 -19 5 -12 2 6 2 18 0 25 -3 6 -5 1 -5 -13z"/>
<path d="M243 3995 c0 -44 2 -61 4 -37 2 23 2 59 0 80 -2 20 -4 1 -4 -43z"/>
<path d="M1194 3621 c1 -27 4 -36 12 -30 6 5 9 20 6 34 -7 41 -20 38 -18 -4z"/>
<path d="M1341 3514 c0 -11 3 -14 6 -6 3 7 2 16 -1 19 -3 4 -6 -2 -5 -13z"/>
<path d="M1590 3360 c0 -11 4 -20 9 -20 5 0 7 9 4 20 -3 11 -7 20 -9 20 -2 0
-4 -9 -4 -20z"/>
<path d="M969 3310 c-1 -8 -1 -18 -1 -21 6 -55 13 -109 17 -129 3 -14 12 -88
20 -165 8 -77 22 -174 30 -215 8 -41 20 -120 25 -175 6 -54 13 -101 15 -104
11 -11 4 143 -9 201 -15 64 -51 348 -65 511 -5 48 -13 93 -20 100 -8 8 -11 7
-12 -3z"/>
<path d="M1501 2507 l-1 -128 30 16 c17 9 30 18 30 21 0 2 -9 0 -19 -6 -11 -5
-22 -10 -25 -10 -9 0 -2 32 12 57 17 31 14 91 -8 138 l-19 40 0 -128z"/>
<path d="M1070 2462 c0 -16 -6 -51 -14 -78 -17 -62 -19 -125 -5 -161 7 -15 15
-44 19 -63 5 -21 8 39 9 148 0 100 -1 182 -4 182 -3 0 -5 -13 -5 -28z"/>
<path d="M1471 2363 c-1 -21 -4 -58 -6 -83 -17 -158 -24 -391 -12 -407 6 -8 6
-13 0 -13 -6 0 -9 -10 -9 -22 1 -13 -2 -29 -7 -36 -10 -13 -3 -27 14 -27 5 0
9 -3 9 -7 0 -5 0 -19 0 -33 0 -19 -4 -23 -17 -18 -15 5 -16 4 -7 -8 6 -8 12
-22 13 -31 0 -10 2 -26 2 -35 1 -10 6 -24 12 -30 6 -9 6 -13 -1 -13 -6 0 -9
-10 -6 -22 3 -13 7 -59 9 -103 2 -44 4 -80 5 -80 1 0 3 -45 5 -100 2 -55 7
-116 11 -135 3 -19 8 -57 10 -84 2 -26 9 -54 15 -62 9 -11 8 -15 -5 -20 -11
-4 -13 -11 -8 -22 5 -10 9 -32 11 -51 1 -18 7 -43 14 -55 6 -11 17 -43 24 -71
9 -41 9 -53 -3 -66 -8 -8 -14 -20 -14 -26 0 -6 -7 -16 -15 -23 -8 -7 -12 -16
-9 -21 3 -5 0 -9 -5 -9 -6 0 -11 -11 -11 -24 0 -14 -5 -28 -10 -31 -6 -4 -7
-11 -4 -17 5 -8 1 -9 -12 -4 -31 13 -122 23 -135 16 -20 -13 8 -21 45 -15 35
7 76 -1 76 -13 0 -4 -19 -6 -42 -4 -32 2 -39 1 -28 -7 8 -6 22 -11 31 -11 8 0
24 -6 35 -14 16 -13 17 -14 2 -12 -10 1 -20 4 -23 7 -8 8 -65 -2 -60 -11 3 -4
20 -11 40 -14 55 -11 49 -22 -11 -18 -66 4 -70 -4 -9 -19 61 -15 57 -26 -7
-23 l-53 3 48 -16 c26 -9 47 -20 47 -24 0 -8 -17 -6 -93 12 -48 11 -96 9 -131
-6 -14 -6 -18 -5 -14 6 2 7 24 19 49 26 l44 12 -38 -2 c-23 -2 -36 1 -34 7 2
6 20 12 40 14 20 2 37 8 37 14 0 7 -13 8 -36 5 -25 -4 -34 -2 -31 6 2 7 17 13
33 15 50 5 62 13 35 23 -15 6 -28 6 -36 -1 -8 -6 -16 -7 -19 -2 -9 15 5 22 40
22 18 0 36 5 39 10 6 10 -13 15 -47 12 -10 -1 -18 3 -18 8 0 6 17 10 38 11 37
1 37 1 8 9 -16 5 -33 7 -37 4 -24 -14 -129 -238 -129 -273 0 -5 16 -5 37 1 76
21 263 -14 284 -53 11 -21 11 -21 41 7 70 68 130 255 99 312 l-12 22 -29 -22
c-16 -12 -32 -19 -34 -17 -3 3 11 41 30 84 33 75 35 84 29 150 -4 39 -7 78 -7
88 1 9 -2 17 -6 17 -4 0 -6 20 -4 45 2 25 0 45 -4 45 -5 0 -10 42 -11 93 -4
226 -6 277 -12 277 -3 0 -6 88 -6 195 0 169 -2 195 -15 190 -11 -4 -10 -1 2 8
15 12 17 27 12 113 -3 54 -7 127 -7 161 -1 35 -6 63 -11 63 -5 0 -3 6 3 13 6
8 7 17 3 21 -4 4 -7 59 -7 122 0 66 -5 118 -11 124 -8 8 -11 -1 -13 -27z"/>
<path d="M1626 2080 c-4 -91 -9 -181 -11 -200 -2 -19 -6 -73 -10 -120 -3 -47
-8 -105 -11 -130 -13 -130 -34 -433 -33 -485 0 -33 5 -69 10 -80 6 -13 7 9 3
65 -4 62 -2 81 6 70 7 -11 9 5 5 60 -4 54 -2 70 5 55 8 -15 9 -4 5 42 -2 34 0
65 5 68 10 6 14 57 12 183 -1 51 2 92 8 92 5 0 7 23 5 53 -4 38 -2 45 4 27 6
-16 8 11 5 80 -2 58 -1 97 4 87 6 -15 6 221 -1 278 -2 11 -6 -54 -11 -145z
m-19 -542 c-3 -8 -6 -5 -6 6 -1 11 2 17 5 13 3 -3 4 -12 1 -19z"/>
<path d="M1651 2114 c0 -11 3 -14 6 -6 3 7 2 16 -1 19 -3 4 -6 -2 -5 -13z"/>
<path d="M948 2091 c-10 -14 -18 -18 -23 -12 -9 16 -35 14 -35 -3 0 -9 -8 -12
-25 -8 -15 2 -25 0 -25 -7 0 -6 -3 -10 -7 -10 -18 3 -33 -2 -33 -9 0 -8 74
-127 131 -210 32 -47 61 -121 53 -134 -3 -4 4 -20 16 -35 16 -21 18 -28 8 -35
-10 -8 -10 -11 0 -15 6 -2 9 -9 6 -15 -3 -5 3 -12 15 -15 27 -7 27 -18 -1 -37
-22 -16 -22 -16 10 -22 32 -6 32 -7 15 -26 -17 -19 -17 -20 2 -34 14 -11 15
-14 4 -14 -17 0 -75 60 -71 73 1 4 -3 7 -9 7 -5 0 -7 5 -4 10 3 6 -1 13 -9 16
-9 3 -16 10 -16 16 0 5 -14 23 -30 41 -17 18 -33 40 -36 50 -3 9 -9 17 -14 17
-6 0 -6 -9 -1 -23 6 -14 5 -30 -1 -41 -5 -10 -7 -20 -4 -23 3 -4 1 -12 -5 -20
-9 -10 -8 -13 3 -13 9 0 13 -11 13 -35 -1 -19 3 -35 8 -35 6 0 8 -3 5 -6 -11
-11 66 -214 85 -222 4 -2 7 -11 7 -21 0 -9 6 -25 13 -36 20 -28 48 -116 41
-127 -3 -5 0 -15 6 -23 7 -8 10 -24 7 -35 -4 -17 -1 -19 21 -15 26 5 26 5 5
-6 l-23 -12 26 -23 c17 -17 20 -24 10 -24 -8 0 -18 -5 -22 -11 -4 -7 6 -10 32
-9 57 4 84 1 84 -8 0 -5 -21 -7 -47 -4 l-48 4 19 -21 c11 -11 28 -21 39 -21
11 0 17 -3 13 -7 -3 -4 -25 -6 -48 -4 -36 2 -40 0 -28 -13 7 -9 18 -16 26 -16
7 0 16 -5 20 -12 4 -7 3 -8 -4 -4 -7 4 -12 2 -12 -5 0 -10 -3 -10 -12 -1 -14
14 -58 16 -58 3 0 -5 13 -15 30 -23 17 -7 30 -16 30 -19 0 -8 -33 -8 -45 1
-17 14 -109 37 -124 32 -8 -3 -12 1 -9 9 3 9 17 13 38 11 28 -2 31 0 20 13 -7
8 -17 12 -22 8 -6 -3 -9 0 -6 8 3 8 17 14 31 14 33 0 39 15 10 26 -20 7 -28
-1 -73 -64 l-51 -72 53 -8 c70 -10 139 -46 158 -83 8 -16 16 -31 17 -33 1 -2
22 9 46 25 l44 27 9 81 c5 45 8 115 8 156 -2 179 -23 553 -37 640 -9 52 -21
136 -27 185 -24 177 -27 201 -39 255 -7 30 -14 65 -17 77 -4 23 -4 23 -24 3
-27 -27 -79 -25 -72 4 3 12 1 17 -6 13 -5 -4 -12 -2 -14 5 -3 7 -11 3 -20 -11z
m249 -1137 c-3 -3 -12 -4 -19 -1 -8 3 -5 6 6 6 11 1 17 -2 13 -5z"/>
<path d="M1622 1665 c0 -16 2 -22 5 -12 2 9 2 23 0 30 -3 6 -5 -1 -5 -18z"/>
<path d="M845 1630 c4 -6 11 -8 16 -5 14 9 11 15 -7 15 -8 0 -12 -5 -9 -10z"/>
<path d="M989 923 c-7 -10 -9 -15 -5 -11 5 4 15 3 23 -4 16 -13 39 4 29 21
-10 16 -32 13 -47 -6z"/>
<path d="M1030 890 c0 -5 12 -10 26 -10 14 0 23 4 19 10 -3 6 -15 10 -26 10
-10 0 -19 -4 -19 -10z"/>
<path d="M1401 871 c-11 -7 -11 -9 0 -14 8 -3 -3 -3 -23 0 -22 3 -38 1 -38 -4
0 -6 -12 -23 -26 -38 l-25 -27 48 7 c51 7 68 17 84 48 13 22 0 40 -20 28z"/>
<path d="M1015 850 c-18 -7 -18 -9 -3 -15 9 -4 25 -5 34 -3 14 2 15 5 3 14 -8
7 -22 8 -34 4z"/>
<path d="M1320 540 c0 -5 9 -10 20 -10 11 0 20 5 20 10 0 6 -9 10 -20 10 -11
0 -20 -4 -20 -10z"/>
<path d="M1305 500 c-4 -6 5 -10 20 -10 15 0 24 4 20 10 -3 6 -12 10 -20 10
-8 0 -17 -4 -20 -10z"/>
<path d="M1290 460 c0 -5 9 -10 20 -10 11 0 20 5 20 10 0 6 -9 10 -20 10 -11
0 -20 -4 -20 -10z"/>
</g>
</svg>
