<?xml version="1.0" standalone="no"?>
<!DOCTYPE svg PUBLIC "-//W3C//DTD SVG 20010904//EN"
 "http://www.w3.org/TR/2001/REC-SVG-20010904/DTD/svg10.dtd">
<svg version="1.0" xmlns="http://www.w3.org/2000/svg"
 width="666.000000pt" height="374.000000pt" viewBox="0 0 666.000000 374.000000"
 preserveAspectRatio="xMidYMid meet">

<g transform="translate(0.000000,374.000000) scale(0.100000,-0.100000)"
fill="#000000" stroke="none">
<path d="M3530 3736 c0 -3 7 -52 16 -109 22 -148 20 -380 -6 -552 -22 -152
-47 -257 -135 -580 -31 -115 -81 -307 -111 -424 -52 -207 -64 -244 -64 -207 0
9 -12 21 -27 27 -31 12 -401 25 -391 14 4 -4 96 -20 204 -35 108 -16 201 -33
207 -39 8 -8 8 -25 0 -58 -60 -269 -124 -574 -134 -641 -10 -74 -13 -81 -28
-70 -14 11 -14 11 -3 -3 13 -17 6 -83 -8 -74 -4 3 -8 -10 -8 -29 0 -19 -3 -49
-7 -68 -10 -49 -56 -190 -61 -185 -3 2 0 16 6 31 5 15 7 39 4 53 -5 17 -3 24
4 19 7 -4 10 3 8 21 -3 23 -8 28 -32 28 -20 0 -29 -5 -29 -17 0 -27 -9 -29
-53 -14 -44 16 -140 19 -157 6 -5 -4 -46 -4 -90 1 -177 21 -188 22 -181 11 3
-6 0 -12 -6 -15 -24 -8 1 -20 47 -21 45 -1 65 -16 21 -16 -16 0 -23 -5 -22
-17 0 -10 -7 -19 -19 -21 -48 -7 -65 -13 -65 -21 0 -10 66 -26 90 -23 30 4
101 -21 111 -39 13 -26 29 -24 29 4 0 13 6 31 13 40 11 15 17 15 62 3 28 -8
41 -15 31 -15 -11 -1 -16 -4 -13 -8 9 -9 -43 -43 -65 -43 -10 0 -18 -4 -18
-10 0 -5 -15 -16 -32 -24 -38 -16 -40 -15 85 -46 48 -13 90 -27 93 -32 3 -4
14 -8 24 -8 10 0 26 -9 34 -21 14 -21 15 -21 30 10 33 64 24 28 -11 -47 -45
-93 -126 -218 -140 -215 -6 1 -10 -5 -9 -15 0 -9 -5 -16 -12 -14 -8 1 -11 -2
-8 -7 7 -11 -51 -83 -107 -132 l-40 -35 79 -18 c145 -32 289 -38 781 -33 533
5 546 6 778 83 488 161 870 598 982 1124 16 76 18 143 18 660 0 566 0 577 -23
680 -133 594 -579 1034 -1177 1160 -99 21 -465 42 -465 26z m-690 -2926 c0
-13 -50 -13 -70 0 -11 7 -4 10 28 10 23 0 42 -4 42 -10z m-10 -149 c0 -5 -10
-11 -22 -14 -22 -6 -22 -6 -4 8 23 17 26 18 26 6z m25 -112 c11 -17 0 -20 -21
-4 -17 13 -17 14 -2 15 9 0 20 -5 23 -11z"/>
<path d="M2200 3533 c-8 -3 -55 -33 -105 -67 -106 -72 -258 -219 -342 -331
-119 -159 -219 -381 -265 -585 -23 -103 -23 -113 -23 -685 0 -566 1 -582 23
-675 25 -106 71 -240 82 -240 4 0 10 12 13 28 2 15 17 79 31 142 15 63 36 158
47 210 10 52 26 118 34 145 8 28 24 93 35 145 l22 94 -22 18 c-21 17 -21 18
-4 48 10 16 26 30 35 30 13 0 22 22 39 97 22 90 22 99 7 124 -14 26 -14 35 3
116 11 48 40 160 65 248 26 88 55 193 66 234 10 41 41 146 68 235 27 89 59
196 71 238 13 42 31 86 42 98 34 36 57 103 61 176 2 41 13 89 25 117 21 47 20
50 -8 40z"/>
<path d="M2186 1733 c5 -5 12 -12 16 -18 4 -6 8 -2 8 8 0 9 -7 17 -17 17 -9 0
-12 -3 -7 -7z"/>
<path d="M2685 1290 c-3 -5 1 -10 9 -10 9 0 16 5 16 10 0 6 -4 10 -9 10 -6 0
-13 -4 -16 -10z"/>
<path d="M2785 1090 c3 -5 11 -10 16 -10 6 0 7 5 4 10 -3 6 -11 10 -16 10 -6
0 -7 -4 -4 -10z"/>
<path d="M2573 1084 c20 -6 23 -20 5 -27 -10 -3 -10 -7 1 -20 17 -21 40 -22
47 -3 7 18 54 30 114 28 80 -2 1 16 -97 22 -49 3 -80 3 -70 0z"/>
<path d="M2953 1073 c9 -2 25 -2 35 0 9 3 1 5 -18 5 -19 0 -27 -2 -17 -5z"/>
<path d="M2813 1053 c9 -2 25 -2 35 0 9 3 1 5 -18 5 -19 0 -27 -2 -17 -5z"/>
<path d="M2693 1023 c4 -3 26 -7 50 -7 28 -1 41 -5 40 -13 -2 -9 10 -13 35
-13 63 0 112 12 112 26 0 11 -25 14 -122 14 -67 0 -118 -3 -115 -7z"/>
<path d="M1800 744 c-63 -7 -89 -13 -77 -18 25 -12 205 -2 218 11 17 17 -34
19 -141 7z"/>
<path d="M1988 733 c6 -2 18 -2 25 0 6 3 1 5 -13 5 -14 0 -19 -2 -12 -5z"/>
<path d="M1795 560 c20 -22 57 -21 82 3 10 9 0 13 -44 15 l-57 3 19 -21z"/>
<path d="M2385 534 c-27 -8 -101 -15 -163 -16 -113 -2 -113 -2 -107 -25 3 -13
1 -23 -5 -23 -6 0 -8 5 -5 10 3 6 -1 10 -9 10 -21 0 -28 -16 -12 -29 16 -13
77 -18 94 -7 7 4 12 2 12 -4 0 -21 276 16 306 41 8 6 25 9 38 5 16 -4 26 -1
30 9 3 8 15 15 26 15 27 0 26 16 -2 24 -38 10 -150 4 -203 -10z"/>
<path d="M2460 419 c0 -7 -8 -18 -17 -25 -15 -11 -15 -13 -3 -14 8 0 22 4 30
10 9 5 19 5 26 -1 14 -11 94 -1 94 12 0 5 -13 9 -29 9 -17 0 -33 5 -36 10 -9
14 -65 13 -65 -1z"/>
<path d="M2688 422 c-26 -5 -22 -15 14 -31 17 -8 39 -22 50 -33 18 -18 19 -18
28 6 15 41 3 61 -38 62 -20 0 -45 -1 -54 -4z"/>
<path d="M2104 399 c-11 -18 18 -30 57 -24 34 6 36 5 36 -24 0 -30 -1 -31 -49
-31 -53 0 -61 -11 -23 -36 21 -14 28 -14 41 -3 9 7 38 12 65 12 39 -1 49 3 50
16 0 10 2 11 6 4 8 -21 30 -15 37 11 4 17 15 25 41 30 44 9 44 19 2 34 -39 14
-67 15 -67 3 0 -20 -61 -20 -98 -1 -40 22 -87 26 -98 9z"/>
<path d="M2040 331 c0 -5 5 -13 10 -16 6 -3 10 -2 10 4 0 5 -4 13 -10 16 -5 3
-10 2 -10 -4z"/>
</g>
</svg>
